<svg version="1.2" xmlns="http://www.w3.org/2000/svg" viewBox="0 0 59 59" width="59" height="59">
	<style>
		.s0 { fill: #000000 } 
		.s1 { fill: #ffffff } 
	</style>
	<path fill-rule="evenodd" class="s0" d="m29.5 59c-16.31 0-29.5-13.19-29.5-29.5 0-16.31 13.19-29.5 29.5-29.5 16.31 0 29.5 13.19 29.5 29.5 0 16.31-13.19 29.5-29.5 29.5z"/>
	<path class="s1" d="m20.54 17.75c6.4-3.6 12-7 15-8.5 2.5-1.5 3.61 4.19 1.5 8-2.12 3.8-8 6-8 6 0 0 13-3 13.5 8.5 0.13 3-2 6.5-3.5 7.5-1.5 1-14.5 8.75-16 9.5-1.76 0.88-2.5-1.5-2.5-4.5 0-7 8-9.5 8-9.5-7 1-11.5-1.5-12.5-9-0.33-2.5 1.5-6.32 4.5-8z"/>
</svg>