<svg width="48" height="48" viewBox="0 0 48 48" fill="none" xmlns="http://www.w3.org/2000/svg">
<path d="M48 24C48 18.353 46.0088 12.8869 42.3765 8.563C38.7443 4.23914 33.7038 1.33453 28.1415 0.360074C22.5792 -0.614381 16.8514 0.403731 11.9656 3.23533C7.07983 6.06693 3.34899 10.5307 1.42931 15.8414C-0.490362 21.1521 -0.475915 26.9696 1.47011 32.2707C3.41614 37.5718 7.16911 42.017 12.0689 44.8243C16.9687 47.6316 22.7014 48.6212 28.2588 47.6192C33.8162 46.6171 38.8423 43.6875 42.453 39.3456L37.8397 35.5092C35.1317 38.7656 31.3622 40.9628 27.1941 41.7144C23.0261 42.4659 18.7265 41.7237 15.0517 39.6182C11.3768 37.5127 8.56211 34.1789 7.10258 30.2031C5.64306 26.2272 5.63223 21.8641 7.07198 17.881C8.51174 13.898 11.3099 10.5502 14.9742 8.42651C18.6385 6.30281 22.9344 5.53923 27.1061 6.27007C31.2778 7.00091 35.0583 9.17937 37.7824 12.4223C40.5066 15.6652 42 19.7648 42 24H48Z" fill="black"/>
</svg>
